<svg id="Layer_1" data-name="Layer 1" xmlns="http://www.w3.org/2000/svg" viewBox="0 0 600 169"><defs><style>.cls-1{fill:#95a67b;}.cls-2,.cls-3{fill:#fff;}.cls-3{stroke:#000;stroke-width:3.19px;}</style></defs><title>Artboard 1</title><rect class="cls-1" x="448.74" y="14.13" width="98.11" height="140.74" transform="translate(987.57 -38.23) rotate(156.3)"/><rect class="cls-2" x="455.61" y="21.51" width="84.69" height="125.85" transform="translate(987.84 -38.42) rotate(156.3)"/><rect class="cls-1" x="36.21" y="14.13" width="98.11" height="140.74" transform="translate(36.52 -25.2) rotate(21.3)"/><rect class="cls-2" x="42.76" y="21.51" width="84.69" height="125.85" transform="translate(36.48 -25.15) rotate(21.3)"/><path class="cls-3" d="M138.53,134a3.12,3.12,0,0,1-2.19-1.15c-14.29-13.48-32.73-30.77-52.78-34.45a30,30,0,0,0-1.27,10.14c0,6.33.46,12.79.46,19.13s-1.27,9-8.06,9c-2.77,0-3.92-.92-3.92-3.68,0-10.37,1.38-20.63,1.38-31,0-2.54-.12-5.07-.35-7.61-2.07-2-4.38-4.61-4.38-7.6,0-2.77,2.08-5,4.15-6.57.23-2.42.35-5,.35-7.38,0-6.22-1.27-12.44-1.27-18.66,0-4,4.26-5.77,7.72-5.77,4.38,0,4.84,2.54,4.84,6.23,0,3.91-.34,7.72-.34,11.63a48.88,48.88,0,0,0,.57,7c16.14-7.37,24.89-24.2,40-32.95a3.07,3.07,0,0,1,1.38-.35c3.34,0,6.34,5.3,6.34,8.3,0,5-35.49,33.88-35.49,35.49a2,2,0,0,0,.69,1.27c3.57,2.76,8.07,4.84,12,7,11.64,6.68,27.31,15.55,35.15,26.62a6.85,6.85,0,0,1,1.15,4C144.63,125.85,142.44,134,138.53,134Z"/><path class="cls-3" d="M217.56,135.42a3.68,3.68,0,0,1-3.57-1.73c-2.31-2.88-3.92-21.32-6.46-27.31-10.71.69-24,5.41-33.88,9.68a31.3,31.3,0,0,0-5,2.19c-3.46,2.65-3,8.06-3,12,0,3.57-9,7.49-12.1,7.49-2.19,0-2.53-.81-2.53-2.65,0-20.51,16.82-52.78,24-72.83,2.53-7,4.84-24.89,14.75-24.89a13.68,13.68,0,0,1,4.72,1.15c9.45,3.92,14,20.52,16.83,29.39,6,18.67,11.4,37.45,15,56.81a10.64,10.64,0,0,1,.23,1.84A9.22,9.22,0,0,1,217.56,135.42ZM200.39,80.68c-2.77-6.91-4.84-16.94-10.72-21.78-5.41,9.91-14.06,29.15-14.86,40.22,9.1-3.69,18.66-5.53,28.34-7.15C203.15,87.94,201.89,84.37,200.39,80.68Z"/><path class="cls-3" d="M306.39,128.39a3.24,3.24,0,0,1-2.08-.69c-17.28-11.18-31.23-17.64-52.2-18.56a21.57,21.57,0,0,0-.46,4.73c0,3.22.46,6.33.46,9.56a17,17,0,0,1-.69,5.42c-.92,3.11-6.34,9-9.79,9-1,0-1.39-.81-1.39-1.73,0-5.42.23-10.72.23-16.13a53.28,53.28,0,0,0-.57-9.57,7.08,7.08,0,0,1-3.58-6.11c0-3.34,2.08-6.22,4.27-8.52a58.5,58.5,0,0,0,.23-6.34c0-5.88-.46-11.64-.46-17.52a62,62,0,0,1,.57-9.22,6.58,6.58,0,0,1-2.88-5.3c0-12.91,24-13.37,33-13.37,5.42,0,10.72-.23,16.13-.23,7.72,0,24.55.12,24.55,11.07s-19.82,26.27-27.77,33.3c-3.11,2.77-6.92,4.38-10,7.14,5.3.7,10.37,3.69,15.33,5.65,5.76,2.31,24.08,8.87,24.08,16.13C313.3,120.55,310.54,128.39,306.39,128.39ZM285.65,58.9c-10.95,0-22.13.34-32.85,3-1.49,5.18-1.61,10.6-1.61,15.9a79.77,79.77,0,0,0,.92,12.79C266.4,87.36,280,75.72,290.83,66.27c1.27-1,3.11-2.65,3.11-4.49C293.94,58.78,287.6,58.9,285.65,58.9Z"/><path class="cls-3" d="M379.56,58.67c-.23,13-.12,26-.69,39-.81,18.55-11.87,32.38-29.39,38a30.12,30.12,0,0,1-9.56,1.26c-7.26,0-16.25-2.18-17.17-10.71a120.51,120.51,0,0,1-.35-13c0-21.32.46-42.76.46-64.08,0-3.68,5.42-6.56,8.64-6.56s3.92,1.84,3.92,4.61c0,14.63-1.84,29.27-1.84,44v3.11c0,7.83-1.16,25,10.25,25a16.73,16.73,0,0,0,7.49-2c14.64-7,15.56-15.32,15.56-30.3,0-9.8-.58-19.71-1.27-29.5-.34-4.73-.8-9.45-.8-14.18,0-4.15,8.29-7.72,11.75-7.72,2.42,0,3.57,1.15,3.57,3.57C380.13,45.65,379.67,52.22,379.56,58.67Z"/><path class="cls-3" d="M461.11,55.33c-4.72,1.5-11.52,1.5-16.48,1.5a19.41,19.41,0,0,0-9.21,1.84c-.81,15.1-1,30.31-1,45.4,0,8.41.34,16.94.34,25.35,0,3.69-5.76,7.72-9.1,7.72-1.73,0-2.53-1.15-2.53-2.76,0-13.71.34-27.43.34-41.14,0-11.18-.11-22.36-1-33.53a9.55,9.55,0,0,0-3.11-.47c-6.91,0-12.67,5-19.47,5-4.84,0-7.95-7.37-7.95-11.41,0-7.95,25.69-8.18,31.57-8.87A132.88,132.88,0,0,1,436.91,43a122.29,122.29,0,0,1,21.55,1.61,6.94,6.94,0,0,1,5.65,6.91C464.11,53.71,463.07,54.64,461.11,55.33Z"/><path class="cls-3" d="M515.62,135.42a3.71,3.71,0,0,1-3.58-1.73c-2.3-2.88-3.91-21.32-6.45-27.31-10.72.69-24,5.41-33.88,9.68a31.3,31.3,0,0,0-4.95,2.19c-3.46,2.65-3,8.06-3,12,0,3.57-9,7.49-12.1,7.49-2.19,0-2.53-.81-2.53-2.65,0-20.51,16.82-52.78,24-72.83,2.54-7,4.84-24.89,14.75-24.89a13.68,13.68,0,0,1,4.73,1.15C502,42.42,506.51,59,509.39,67.89c6,18.67,11.41,37.45,15,56.81a9.77,9.77,0,0,1,.24,1.84A9.22,9.22,0,0,1,515.62,135.42ZM498.45,80.68c-2.77-6.91-4.84-16.94-10.72-21.78-5.42,9.91-14.06,29.15-14.87,40.22,9.11-3.69,18.67-5.53,28.35-7.15C501.21,87.94,499.94,84.37,498.45,80.68Z"/></svg>